HIERARCHY
ROOT SpineBase
{
  OFFSET 0.000000 0.000000 0.000000
  CHANNELS 6 Xposition Yposition Zposition Zrotation Xrotation Yrotation
  JOINT SpineMid
  {
    OFFSET 0.000000 30.789929 0.000000
    CHANNELS 3 Zrotation Xrotation Yrotation
    JOINT SpineShoulder
    {
      OFFSET -0.174473 22.928624 -0.718653
      CHANNELS 3 Zrotation Xrotation Yrotation
      JOINT Neck
      {
        OFFSET -0.115767 7.605941 -0.534905
        CHANNELS 3 Zrotation Xrotation Yrotation
        JOINT Head
        {
          OFFSET 4.591883 13.911952 -1.520722
          CHANNELS 3 Zrotation Xrotation Yrotation
          End Site
          {
            OFFSET 0 0 0
          }
        }
      }
      JOINT ShoulderLeft
      {
        OFFSET -16.370583 -1.597717 -7.570452
        CHANNELS 3 Zrotation Xrotation Yrotation
        JOINT ElbowLeft
        {
          OFFSET -7.451700 -24.603800 -2.624322
          CHANNELS 3 Zrotation Xrotation Yrotation
          JOINT WristLeft
          {
            OFFSET 2.992984 -22.421159 -5.951564
            CHANNELS 3 Zrotation Xrotation Yrotation
            JOINT HandLeft
            {
              OFFSET 2.374436 -6.253362 0.110499
              CHANNELS 3 Zrotation Xrotation Yrotation
              JOINT HandTipLeft
              {
                OFFSET 0.610362 -5.034754 -0.764721
                CHANNELS 3 Zrotation Xrotation Yrotation
                End Site
                {
                  OFFSET 0 0 0
                }
              }
              JOINT ThumbLeft
              {
                OFFSET 2.643481 -0.149854 -2.620273
                CHANNELS 3 Zrotation Xrotation Yrotation
                End Site
                {
                  OFFSET 0 0 0
                }
              }
            }
          }
        }
      }
      JOINT ShoulderRight
      {
        OFFSET 17.852426 -4.647941 3.511171
        CHANNELS 3 Zrotation Xrotation Yrotation
        JOINT ElbowRight
        {
          OFFSET 2.026030 -24.427333 2.741269
          CHANNELS 3 Zrotation Xrotation Yrotation
          JOINT WristRight
          {
            OFFSET -3.413925 -27.927559 -11.379827
            CHANNELS 3 Zrotation Xrotation Yrotation
            JOINT HandRight
            {
              OFFSET -1.557670 0.274586 0.517026
              CHANNELS 3 Zrotation Xrotation Yrotation
              JOINT HandTipRight
              {
                OFFSET 0.459414 -3.347305 -2.392086
                CHANNELS 3 Zrotation Xrotation Yrotation
                End Site
                {
                  OFFSET 0 0 0
                }
              }
              JOINT ThumbRight
              {
                OFFSET 0.486798 -1.396112 -3.880787
                CHANNELS 3 Zrotation Xrotation Yrotation
                End Site
                {
                  OFFSET 0 0 0
                }
              }
            }
          }
        }
      }
    }
  }
  JOINT HipLeft
  {
    OFFSET -8.381778 1.289759 -5.602195
    CHANNELS 3 Zrotation Xrotation Yrotation
    JOINT KneeLeft
    {
      OFFSET -9.329569 -30.645080 -0.015567
      CHANNELS 3 Zrotation Xrotation Yrotation
      JOINT AnkleLeft
      {
        OFFSET -5.302421 -33.965658 4.343909
        CHANNELS 3 Zrotation Xrotation Yrotation
        JOINT FootLeft
        {
          OFFSET 3.198093 -3.986434 -13.504100
          CHANNELS 3 Zrotation Xrotation Yrotation
          End Site
          {
            OFFSET 0 0 0
          }
        }
      }
    }
  }
  JOINT HipRight
  {
    OFFSET 7.457710 0.703466 -1.363414
    CHANNELS 3 Zrotation Xrotation Yrotation
    JOINT KneeRight
    {
      OFFSET -1.950449 -32.410313 4.678943
      CHANNELS 3 Zrotation Xrotation Yrotation
      JOINT AnkleRight
      {
        OFFSET -4.771548 -32.216597 9.137637
        CHANNELS 3 Zrotation Xrotation Yrotation
        JOINT FootRight
        {
          OFFSET 0.204459 -7.311826 -6.813785
          CHANNELS 3 Zrotation Xrotation Yrotation
          End Site
          {
            OFFSET 0 0 0
          }
        }
      }
    }
  }
}
MOTION
Frames: 12
Frame Time: 0.033333
47.141015 74.916495 352.060787 -0.000000 0.000000 -14.981782 -0.000000 0.000000 14.981782 -0.000000 0.000000 0.000000 -0.000000 0.000000 0.000000 0.000000 0.000000 0.000000 -0.000000 0.000000 0.000000 -0.000000 0.000000 0.000000 -0.000000 0.000000 0.000000 -0.000000 0.000000 0.000000 0.000000 0.000000 0.000000 0.000000 0.000000 0.000000 -0.000000 0.000000 0.000000 -0.000000 0.000000 0.000000 -0.000000 0.000000 0.000000 -0.000000 0.000000 0.000000 0.000000 0.000000 0.000000 0.000000 0.000000 0.000000 -0.000000 0.000000 14.981782 -0.000000 0.000000 0.000000 -0.000000 0.000000 0.000000 0.000000 0.000000 0.000000 -0.000000 0.000000 14.981782 -0.000000 0.000000 0.000000 -0.000000 0.000000 0.000000 0.000000 0.000000 0.000000
47.144811 74.913225 352.069528 0.035882 0.069865 -14.945142 -0.016651 -0.076755 14.945109 -0.000000 0.000000 0.000000 -0.000000 0.000000 0.000000 0.000000 0.000000 0.000000 -0.000000 0.000000 0.000000 -0.000000 0.000000 0.000000 -1.424604 0.189853 0.049509 4.202702 -1.489733 -0.582743 0.000000 0.000000 0.000000 0.000000 0.000000 0.000000 -0.000000 0.000000 0.000000 -0.000000 0.000000 0.000000 5.276387 5.931040 17.134707 -6.845371 -0.331153 -16.349459 0.000000 0.000000 0.000000 0.000000 0.000000 0.000000 -0.016651 -0.076755 14.945109 -0.000000 0.000000 0.000000 -0.627570 -1.547512 0.922109 0.000000 0.000000 0.000000 -0.016651 -0.076755 14.945109 -0.000000 0.000000 0.000000 2.419461 5.162768 -2.128683 0.000000 0.000000 0.000000
47.151831 74.908959 352.070451 0.061566 0.124321 -14.933167 -0.027450 -0.135987 14.933067 -0.000000 0.000000 0.000000 -0.000000 0.000000 0.000000 0.000000 0.000000 0.000000 -0.000000 0.000000 0.000000 -0.000000 0.000000 0.000000 -2.807341 0.661212 0.219721 7.600579 -3.393408 -1.073622 0.000000 0.000000 0.000000 0.000000 0.000000 0.000000 -0.000000 0.000000 0.000000 -0.000000 0.000000 0.000000 7.986333 11.020174 29.071807 -10.657716 1.310323 -28.093685 0.000000 0.000000 0.000000 0.000000 0.000000 0.000000 -0.027450 -0.135987 14.933067 -0.000000 0.000000 0.000000 -1.205272 -3.072795 1.759570 0.000000 0.000000 0.000000 -0.027450 -0.135987 14.933067 -0.000000 0.000000 0.000000 4.274259 8.440684 -3.797482 0.000000 0.000000 0.000000
47.162073 74.903698 352.063557 0.077041 0.163348 -14.945908 -0.032306 -0.177691 14.945748 -0.000000 0.000000 0.000000 -0.000000 0.000000 0.000000 0.000000 0.000000 0.000000 -0.000000 0.000000 0.000000 0.769770 -0.591566 -0.279460 -4.889043 1.989659 0.855422 10.243719 -5.725644 -1.486763 0.000000 0.000000 0.000000 0.000000 0.000000 0.000000 -0.000000 0.000000 0.000000 -0.000000 0.000000 0.000000 9.243177 14.453904 36.328849 -11.927574 3.256150 -35.324800 0.000000 0.000000 0.000000 0.000000 0.000000 0.000000 -0.032306 -0.177691 14.945748 -0.000000 0.000000 0.000000 -1.729985 -4.556973 2.501313 0.000000 0.000000 0.000000 -0.032306 -0.177691 14.945748 -0.000000 0.000000 0.000000 5.536953 10.104352 -4.952388 0.000000 0.000000 0.000000
47.175539 74.897441 352.048846 0.082301 0.186933 -14.983453 -0.031173 -0.201856 14.983264 -0.000000 0.000000 0.000000 -0.000000 0.000000 0.000000 0.000000 0.000000 0.000000 -0.000000 0.000000 0.000000 0.953992 -0.842524 -0.358993 -6.267886 3.271574 1.426651 12.156886 -8.489563 -1.848252 0.000000 0.000000 0.000000 0.000000 0.000000 0.000000 -0.000000 0.000000 0.000000 -0.000000 0.000000 0.000000 9.903948 16.475788 40.201579 -11.684119 4.756463 -39.388617 0.000000 0.000000 0.000000 0.000000 0.000000 0.000000 -0.031173 -0.201856 14.983264 -0.130603 -0.795033 0.106393 -2.075687 -5.182592 3.058975 0.000000 0.000000 0.000000 -0.031173 -0.201856 14.983264 -0.000000 0.000000 0.000000 6.205287 10.329177 -5.577084 0.000000 0.000000 0.000000
47.192227 74.890189 352.026317 0.077346 0.195074 -15.045931 -0.024055 -0.208465 15.045755 -0.000000 0.000000 0.000000 0.638304 0.595321 -0.130354 0.000000 0.000000 0.000000 -0.000000 0.000000 0.000000 1.102147 -1.120484 -0.431932 -7.466945 4.842511 2.144733 13.342651 -11.672450 -2.199202 0.000000 0.000000 0.000000 0.000000 0.000000 0.000000 -0.000000 0.000000 0.000000 0.136129 0.820518 -0.156314 10.136075 16.637332 41.883661 -10.605631 5.621764 -41.246287 0.000000 0.000000 0.000000 0.000000 0.000000 0.000000 -0.024055 -0.208465 15.045755 -0.126657 -0.974241 0.134649 -2.495421 -6.346780 3.563930 0.000000 0.000000 0.000000 -0.024055 -0.208465 15.045755 -0.000000 0.000000 0.000000 6.282871 9.167202 -5.670758 0.000000 0.000000 0.000000
47.195874 74.880801 352.023047 0.086012 0.173517 -15.126025 -0.037754 -0.189949 15.125832 -0.000000 0.000000 0.000000 0.461439 0.818982 -0.223653 0.000000 0.000000 0.000000 -0.000000 0.000000 0.000000 1.007801 -1.566168 -0.463962 -8.835266 7.457978 3.312730 14.252851 -16.780786 -2.754390 0.000000 0.000000 0.000000 0.000000 0.000000 0.000000 -0.000000 0.000000 0.000000 0.174853 0.860230 -0.177210 10.129375 15.869345 40.048652 -5.574667 6.092098 -41.177574 0.000000 0.000000 0.000000 0.000000 0.000000 0.000000 -0.037754 -0.189949 15.125832 -0.080041 -1.183070 0.173386 -2.564754 -6.539090 3.236485 0.000000 0.000000 0.000000 -0.037754 -0.189949 15.125832 -0.803335 -0.048613 -0.220740 5.471808 2.335694 -4.088655 0.000000 0.000000 0.000000
47.224934 74.865534 351.985377 0.070906 0.148018 -15.259700 -0.029449 -0.161461 15.259567 -0.000000 0.000000 0.000000 0.426322 0.896186 -0.253067 0.000000 0.000000 0.000000 -0.000000 0.000000 0.000000 0.996550 -1.993438 -0.515104 -9.471693 10.166747 4.558724 13.951731 -21.881502 -3.455375 0.000000 0.000000 0.000000 0.000000 0.000000 0.000000 -0.000000 0.000000 0.000000 0.197471 0.871576 -0.187969 9.421672 14.067314 36.900043 -3.743351 5.376596 -38.562251 0.000000 0.000000 0.000000 0.000000 0.000000 0.000000 -0.029449 -0.161461 15.259567 -0.008600 -1.303384 0.201987 -3.277660 -8.355138 4.247062 0.000000 0.000000 0.000000 -0.029449 -0.161461 15.259567 -0.911696 -0.122067 -0.241126 3.172557 -8.909688 -2.082903 0.000000 0.000000 0.000000
47.276427 74.876991 351.904384 0.037601 0.131720 -15.394733 -0.001284 -0.136976 15.394689 -0.000000 0.000000 0.000000 0.330388 0.927699 -0.273271 0.000000 0.000000 0.000000 -0.000000 0.000000 0.000000 0.961484 -2.280033 -0.542748 -9.529438 12.219821 5.477704 12.148675 -24.752137 -4.209803 0.000000 0.000000 0.000000 0.000000 0.000000 0.000000 -0.000000 0.000000 0.000000 0.214619 0.965143 -0.206582 11.698742 12.995012 29.898171 -4.439307 4.998417 -33.197827 0.000000 0.000000 0.000000 0.000000 0.000000 0.000000 -1.003653 -0.760461 15.489124 1.467978 -1.178934 0.175775 -4.600412 -11.400284 5.699025 0.000000 0.000000 0.000000 -0.001284 -0.136976 15.394689 -0.896770 -0.204687 -0.225268 1.647036 -13.510835 -0.845847 0.000000 0.000000 0.000000
47.322513 74.873222 351.812216 0.016804 0.175919 -15.699839 0.031426 -0.173903 15.699861 -0.000000 0.000000 0.000000 -0.000000 0.000000 0.000000 0.000000 0.000000 0.000000 -0.237310 1.140451 -0.317207 1.675432 -3.437358 -0.307459 -9.759637 12.658033 5.788120 10.203880 -25.747413 -4.704247 0.000000 0.000000 0.000000 0.000000 0.000000 0.000000 -0.000000 0.000000 0.000000 0.129049 1.028460 -0.178838 15.206702 9.935114 16.385351 -6.893323 6.157215 -20.869724 0.000000 0.000000 0.000000 0.000000 0.000000 0.000000 -0.724872 -1.093687 15.898749 1.183673 -0.801504 0.044411 -5.512528 -15.554648 7.115286 0.000000 0.000000 0.000000 0.031426 -0.173903 15.699861 -0.943627 -0.227909 -0.235350 1.208728 -13.886053 -0.400923 0.000000 0.000000 0.000000
47.369571 74.853181 351.678072 -0.134810 0.136124 -15.857482 0.166875 -0.094107 15.857780 -0.000000 0.000000 0.000000 -0.000000 0.000000 0.000000 0.000000 0.000000 0.000000 -0.182465 1.473078 -0.423578 2.349740 -3.619561 -0.334307 -10.039824 12.712729 5.995780 7.777005 -25.617154 -5.142745 0.000000 0.000000 0.000000 0.000000 0.000000 0.000000 -0.444905 -0.911327 -0.128981 0.308890 2.720427 -0.040827 -3.881910 -0.215244 20.013321 17.591633 6.773565 -25.250229 0.000000 0.000000 0.000000 0.000000 0.000000 0.000000 -0.072578 -1.208940 16.161471 0.296832 -0.442926 -0.114369 -5.986105 -19.558169 8.620192 0.000000 0.000000 0.000000 0.166875 -0.094107 15.857780 -1.016384 -0.212023 -0.258289 1.740147 -8.956356 -0.652411 0.000000 0.000000 0.000000
47.448952 74.824083 351.510526 -0.319908 0.120704 -15.857599 0.340716 -0.028695 15.858021 -0.000000 0.000000 0.000000 0.199149 1.052596 -0.328014 0.000000 0.000000 0.000000 0.103182 1.822621 -0.563899 2.955452 -3.696716 -0.349039 -10.025763 11.832622 5.781176 5.402447 -24.327080 -5.216027 0.000000 0.000000 0.000000 0.000000 0.000000 0.000000 -0.760944 -0.280899 -0.110589 0.400294 1.927850 0.058329 -8.968386 -2.368817 24.810937 26.741434 3.274864 -32.036814 0.000000 0.000000 0.000000 0.000000 0.000000 0.000000 0.740717 -1.327674 16.276477 -0.950178 -0.247332 -0.270560 -5.966433 -22.691168 9.670500 0.000000 0.000000 0.000000 0.340716 -0.028695 15.858021 -1.234649 -0.196852 -0.322492 1.898063 -8.496307 -0.510425 0.000000 0.000000 0.000000
